<?xml version="1.0" standalone="no"?><!DOCTYPE svg PUBLIC "-//W3C//DTD SVG 1.1//EN" "http://www.w3.org/Graphics/SVG/1.1/DTD/svg11.dtd"><svg t="1606290644274" class="icon" viewBox="0 0 1024 1024" version="1.1" xmlns="http://www.w3.org/2000/svg" p-id="2779" xmlns:xlink="http://www.w3.org/1999/xlink" width="200" height="200"><defs><style type="text/css"></style></defs><path d="M736 518.3c-36.7-22.5-60.2-62.6-60.2-107.2V228.4c0-17.3 3.6-34 10-49.1H262.7c-70.8 0-128.3 57.5-128.3 128.3v224.7c0 70.8 57.5 128.3 128.3 128.3h413.2v-35.2h-0.1c0-44.6 23.6-84.6 60.2-107.1z" p-id="2780"></path><path d="M473.4 722v65.1h29.1v-81.9h0.1V722h173.2v-41.3H252.6c-76.7-0.2-138.9-62.5-138.9-139.1V298.4c0-76.8 62.1-138.9 138.9-138.9h443.9c11.3-17.2 26.6-31.4 44.7-41.3H225c-88.9 0-161 72-161 161V561c0 88.9 72.1 161 161 161h248.4zM303.3 856.2H181c-8.1 0-14.6 6.5-14.6 14.6s6.5 14.5 14.6 14.5h122.3c8.1 0 14.6-6.5 14.6-14.5 0-8.1-6.5-14.6-14.6-14.6zM595.9 835.4H381.4c-18.9 0-34.1 15.3-34.1 34.1v2.3c0 18.9 15.3 34.1 34.1 34.1h214.5c18.9 0 34.1-15.3 34.1-34.1v-2.3c0-18.9-15.3-34.1-34.1-34.1zM415 787.1c-8.1 0.1-14.6 6.6-14.6 14.6 0 8.1 6.5 14.6 14.6 14.6h71.3c0.5 0.1 1.1 0.1 1.7 0.1s1.1 0 1.7-0.1h73.1c8.1 0 14.6-6.5 14.6-14.6s-6.5-14.6-14.6-14.6h-60.1v14.6c0 4.1-1.6 7.7-4.3 10.4 2.6-2.6 4.2-6.3 4.2-10.3v-14.6h-29.1v-0.1H415zM891.9 537.2V788.8c0 22.9-18.7 41.5-41.5 41.5h-30.5c-22.9 0-41.5-18.7-41.5-41.6V537.2c-39.2 10.3-68.2 45.9-68.2 88.3v182.7c0 50.4 41 91.4 91.4 91.4h67c50.4 0 91.4-41 91.4-91.4V625.5c0-42.3-29-77.9-68.1-88.3zM674.2 856.2c-8.1 0-14.6 6.5-14.6 14.6s6.5 14.5 14.6 14.5h28.3c-7-9-12.8-18.8-17.1-29.1h-11.2z" p-id="2781"></path><path d="M710.1 228.3V411h0.1c0 42.3 29 77.9 68.1 88.3v-253c0-22.9 18.7-41.5 41.5-41.5h30.4c22.9 0 41.5 18.7 41.5 41.5v253c39.1-10.3 68.1-46 68.1-88.3V228.3c0-50.4-41-91.4-91.4-91.4h-66.9c-50.4 0-91.4 41-91.4 91.4z" p-id="2782"></path><path d="M801 371.7V664c0 20.4 15.3 37 34.1 37s34.1-16.5 34.1-37V371.7c0-20.3-15.2-36.8-34.1-36.8-18.7-0.1-34.1 16.5-34.1 36.8z" p-id="2783"></path></svg>